<?xml version="1.0" standalone="no"?><!DOCTYPE svg PUBLIC "-//W3C//DTD SVG 1.1//EN" "http://www.w3.org/Graphics/SVG/1.1/DTD/svg11.dtd"><svg t="1739085757975" class="icon" viewBox="0 0 1024 1024" version="1.1" xmlns="http://www.w3.org/2000/svg" p-id="7192" xmlns:xlink="http://www.w3.org/1999/xlink" width="200" height="200"><path d="M970.981839 677.882287c11.520063-10.402445 7.135561-18.999507 3.438825-23.212067-9.198856-10.660357-18.913536-2.407177-23.126096 1.203589-37.913043 31.98107-84.337177 31.98107-120.960662-0.687765a140.733904 140.733904 0 0 0-58.545991-32.926748 9.628709 9.628709 0 0 1-3.868678-5.416149 100.929507 100.929507 0 0 1 0-13.583357v-11.520063c-1.031647-15.2168-9.886621-23.813862-22.954155-23.55595s-21.148772 9.972592-21.320714 24.93148v28.284333a128.096223 128.096223 0 0 0-60.179433 31.379276c-37.741102 35.161983-83.907324 36.365572-123.45381 3.180913-4.900325-4.040619-13.92724-11.606034-23.126096-1.805383a15.044858 15.044858 0 0 0-4.470472 10.660357 20.718919 20.718919 0 0 0 7.995267 13.497387 122.250221 122.250221 0 0 0 53.731637 27.854481q2.579119 0.687765 5.158237 1.547471l-7.04959 21.664596c-12.293799 37.655131-24.415656 74.536527-36.709455 111.761805a22.18042 22.18042 0 0 1-5.760031 6.96362 22.094449 22.094449 0 0 0-1.891354 32.668835 93.622004 93.622004 0 0 0 70.495908 29.05807h0.515824a95.685299 95.685299 0 0 0 71.011731-28.800158 22.438332 22.438332 0 0 0 0-31.809129A44.016957 44.016957 0 0 1 660.02611 834.004932c-5.330178-15.044858-10.316474-30.60554-15.130829-45.650399l-26.30701-80.984324c31.207335-5.674061 54.247461-23.64192 76.943705-42.985309A76.169969 76.169969 0 0 1 716.594777 653.466631l5.674061-2.321206v289.720986H664.582553a22.782214 22.782214 0 0 0-25.017451 25.01745V980.154984h-36.795425a21.148772 21.148772 0 0 0-23.469979 21.320714 21.320714 21.320714 0 0 0 5.760032 15.646652 23.64192 23.64192 0 0 0 17.194124 6.361826H888.106163a21.750567 21.750567 0 0 0 23.72789-21.406684 19.859213 19.859213 0 0 0-5.58809-14.786946 25.791186 25.791186 0 0 0-18.827565-7.135562H851.998503a30.003746 30.003746 0 0 1 0-3.782707c-0.859706-30.949423-5.760031-35.591836-37.139308-35.591836h-46.166222V652.091101a89.925268 89.925268 0 0 1 41.179926 24.415656 117.435866 117.435866 0 0 0 55.365079 29.659864l7.049591 1.805383-6.87765 20.89086c-12.55171 37.827072-24.93148 75.224292-37.48319 112.44957a19.859213 19.859213 0 0 1-4.728384 5.846002l-1.117618 1.117618a21.492655 21.492655 0 0 0-2.235236 30.691511 91.902592 91.902592 0 0 0 72.129349 30.347629 91.816621 91.816621 0 0 0 72.12935-30.51957 20.89086 20.89086 0 0 0 0.601794-27.338657 122.16425 122.16425 0 0 1-13.669328-24.501626c-5.760031-15.2168-10.832298-31.035394-15.818594-46.338164L931.091472 766.947849c-4.814355-14.443064-9.456768-28.972099-14.185152-43.673075l-5.072267-15.732623 5.760032-1.547471a122.937985 122.937985 0 0 0 53.387754-28.112393zM633.289247 846.814554c1.805383 4.986296 1.203589 6.791679-3.610766 9.886621a58.889874 58.889874 0 0 1-61.812875 0c-4.642413-3.008972-5.674061-4.556443-3.868678-9.800651 9.542739-28.026422 18.913536-56.654638 27.940451-84.337177l6.791679-20.976831 2.75106 8.597062 11.09021 34.388248 5.158237 16.076505c4.900325 14.958888 10.058562 30.777482 15.560682 46.166223z m183.375331 123.53978c3.610766 0 4.728384 0 5.072267 0.773735a5.072267 5.072267 0 0 1 0 3.094942v1.547472c0 4.900325 0 4.900325-3.610766 4.900325H668.709142v-9.542739h147.955436zM913.897348 808.213746l3.868678 11.606033c3.266884 9.370797 6.533767 19.085477 9.198856 28.714187a9.284827 9.284827 0 0 1-1.891353 6.791679 55.53702 55.53702 0 0 1-64.391994 0.687765 10.660357 10.660357 0 0 1-3.094942-7.307503c9.800651-31.551217 20.289066-63.532288 30.433599-94.567681l4.12659-12.379769zM498.831199 495.710545A247.853295 247.853295 0 1 0 249.774315 249.404721a247.251501 247.251501 0 0 0 249.056884 246.305824z m0.945677-431.400567A186.556244 186.556244 0 0 1 681.776676 248.630985c-0.601794 100.585624-86.572414 185.696537-185.266684 183.461302a184.750861 184.750861 0 0 1-183.117419-185.782508A185.610567 185.610567 0 0 1 499.776876 64.309978z" fill="#1296db" p-id="7193"></path><path d="M586.005407 598.273494a21.664596 21.664596 0 0 0 22.524302-8.597062 169.620032 169.620032 0 0 1 22.26639-28.370305 13.411417 13.411417 0 0 0-6.103914-21.922507A451.861575 451.861575 0 0 0 45.594094 961.327419c-0.945677 32.238982 5.416149 49.261165 30.261658 49.433106s31.035394-15.474711 34.388248-46.166223a589.500536 589.500536 0 0 1 15.818594-95.169475c45.908311-162.312529 224.125404-284.132896 392.713788-279.404513a361.076601 361.076601 0 0 1 67.229025 8.25318z" fill="#1296db" p-id="7194"></path></svg>